<?xml version="1.0" encoding="UTF-8" standalone="no" ?>
<!DOCTYPE svg PUBLIC "-//W3C//DTD SVG 1.1//EN" "http://www.w3.org/Graphics/SVG/1.1/DTD/svg11.dtd">
<svg xmlns="http://www.w3.org/2000/svg" xmlns:xlink="http://www.w3.org/1999/xlink" version="1.1" width="1280" height="1024" viewBox="0 0 1280 1024" xml:space="preserve">
<desc>Created with Fabric.js 5.3.0</desc>
<defs>
</defs>
<g transform="matrix(1 0 0 1 640 512)" id="background-logo"  >
<rect style="stroke: none; stroke-width: 0; stroke-dasharray: none; stroke-linecap: butt; stroke-dashoffset: 0; stroke-linejoin: miter; stroke-miterlimit: 4; fill: rgb(255,255,255); fill-opacity: 0; fill-rule: nonzero; opacity: 1;"  paint-order="stroke"  x="-640" y="-512" rx="0" ry="0" width="1280" height="1024" />
</g>
<g transform="matrix(1.9211538461538462 0 0 1.9211538461538462 640 396.62781915789014)" id="logo-logo"  >
<g style=""  paint-order="stroke"   >
		<g transform="matrix(0.9620943062509351 0 0 0.9620943062509351 0 0)"  >
<g style=""  paint-order="stroke"   >
		<g transform="matrix(1 0 0 1 0 0)"  >
<rect style="stroke: none; stroke-width: 0; stroke-dasharray: none; stroke-linecap: butt; stroke-dashoffset: 0; stroke-linejoin: miter; stroke-miterlimit: 4; fill: rgb(0,0,0); fill-rule: nonzero; opacity: 1;"  paint-order="stroke"  x="-100" y="-100" rx="0" ry="0" width="200" height="200" />
</g>
</g>
</g>
		<g transform="matrix(0.7661991276832398 0 0 0.033673300718782724 0 71.67602581569463)"  >
<g style=""  paint-order="stroke"   >
		<g transform="matrix(1 0 0 1 0 0)"  >
<rect style="stroke: none; stroke-width: 0; stroke-dasharray: none; stroke-linecap: butt; stroke-dashoffset: 0; stroke-linejoin: miter; stroke-miterlimit: 4; fill: rgb(255,255,255); fill-rule: nonzero; opacity: 1;"  paint-order="stroke"  x="-100" y="-100" rx="0" ry="0" width="200" height="200" />
</g>
</g>
</g>
		<g transform="matrix(0.049225131509649106 0 0 0.049225131509649106 -70.46677132961784 -68.82092724938269)"  >
<g style=""  paint-order="stroke"   >
		<g transform="matrix(1 0 0 1 0 0)"  >
<path style="stroke: none; stroke-width: 1; stroke-dasharray: none; stroke-linecap: butt; stroke-dashoffset: 0; stroke-linejoin: miter; stroke-miterlimit: 4; fill: rgb(255,255,255); fill-rule: nonzero; opacity: 1;"  paint-order="stroke"  transform=" translate(-125, -125)" d="M 250 125 C 250 194.0356 194.0356 250 125 250 C 55.96440000000001 250 0 194.0356 0 125 C 0 55.96440000000001 55.96441 0 125 0 C 194.03559 0 250 55.96441 250 125 z" stroke-linecap="round" />
</g>
</g>
</g>
</g>
</g>
<g transform="matrix(1.9211538461538462 0 0 1.9211538461538462 638.9380822115386 684.0331067459296)" id="text-logo"  >
<g style=""  paint-order="stroke"   >
		<g transform="matrix(1 0 0 1 0 0)" id="text-logo-path-0"  >
<path style="stroke: none; stroke-width: 0; stroke-dasharray: none; stroke-linecap: butt; stroke-dashoffset: 0; stroke-linejoin: miter; stroke-miterlimit: 4; fill: rgb(0,0,0); fill-rule: nonzero; opacity: 1;"  paint-order="stroke"  transform=" translate(-267.35999999999996, 23.45)" d="M 17.42 0.67 C 27.2 0.67 32.76 -5.49 32.76 -14 C 32.76 -20.23 28.48 -23.79 22.58 -26.13 L 15.75 -28.88 C 13.07 -29.95 10.65 -31.36 10.65 -34.51 C 10.65 -37.65 13 -39.53 16.68 -39.53 C 20.37 -39.53 23.38 -37.72 23.38 -34.17 L 23.38 -33.23 L 32.09 -33.23 L 32.09 -33.9 C 32.09 -42.68 26.33 -47.57 17.29 -47.57 C 6.57 -47.57 1.94 -41.81 1.94 -34.51 C 1.94 -26.53 7.17 -22.98 12.33 -21.11 L 17.89 -19.1 C 22.38 -17.49 24.05 -15.34 24.05 -13 C 24.05 -9.25 21.71 -7.37 18.02 -7.37 C 13.94 -7.37 11.32 -9.18 11.32 -12.73 L 11.32 -13.94 L 2.61 -13.94 L 2.61 -13 C 2.61 -4.22 8.11 0.67 17.42 0.67 Z M 49.85 0 L 58.56 0 L 58.56 -38.86 L 69.95 -38.86 L 69.95 -46.9 L 38.46 -46.9 L 38.46 -38.86 L 49.85 -38.86 Z M 85.22 -13.94 L 85.22 -46.9 L 76.51 -46.9 L 76.51 -14.2 C 76.51 -4.02 81.87 0.67 91.86 0.67 C 101.91 0.67 107.33 -3.69 107.33 -14.2 L 107.33 -46.9 L 98.62 -46.9 L 98.62 -13.94 C 98.62 -9.38 96.15 -7.37 91.92 -7.37 C 87.7 -7.37 85.22 -9.38 85.22 -13.94 Z M 116.98 0 L 132.19 0 C 142.24 0 147.67 -4.36 147.67 -14.87 L 147.67 -32.03 C 147.67 -42.55 142.24 -46.9 132.19 -46.9 L 116.98 -46.9 Z M 125.69 -8.04 L 125.69 -38.86 L 132.26 -38.86 C 136.48 -38.86 138.96 -36.85 138.96 -32.29 L 138.96 -14.61 C 138.96 -10.05 136.48 -8.04 132.26 -8.04 Z M 158.86 -46.9 L 158.86 0 L 167.57 0 L 167.57 -46.9 Z M 178.82 -32.7 L 178.82 -14.2 C 178.82 -4.02 184.18 0.67 194.17 0.67 C 204.22 0.67 209.64 -3.69 209.64 -14.2 L 209.64 -32.7 C 209.64 -43.22 204.22 -47.57 194.17 -47.57 C 184.18 -47.57 178.82 -42.88 178.82 -32.7 Z M 200.93 -32.96 L 200.93 -13.94 C 200.93 -9.38 198.45 -7.37 194.23 -7.37 C 190.01 -7.37 187.53 -9.38 187.53 -13.94 L 187.53 -32.96 C 187.53 -37.52 190.01 -39.53 194.23 -39.53 C 198.45 -39.53 200.93 -37.52 200.93 -32.96 Z M 251.45 0 L 260.16 0 L 260.16 -38.86 L 271.55 -38.86 L 271.55 -46.9 L 240.06 -46.9 L 240.06 -38.86 L 251.45 -38.86 Z M 301.97 0 L 310.68 0 L 310.68 -46.9 L 301.97 -46.9 L 301.97 -28.48 L 288.57 -28.48 L 288.57 -46.9 L 279.86 -46.9 L 279.86 0 L 288.57 0 L 288.57 -21.11 L 301.97 -21.11 Z M 324.08 -46.9 L 324.08 0 L 332.79 0 L 332.79 -46.9 Z M 346.19 0 L 371.31 0 L 371.31 -8.04 L 354.9 -8.04 L 354.9 -20.44 L 369.3 -20.44 L 369.3 -28.48 L 354.9 -28.48 L 354.9 -38.86 L 371.31 -38.86 L 371.31 -46.9 L 346.19 -46.9 Z M 381.77 0 L 406.22 0 L 406.22 -8.04 L 390.48 -8.04 L 390.48 -46.9 L 381.77 -46.9 Z M 429.87 0 L 436.57 0 L 444.61 -33.03 L 445.28 -33.03 L 444.61 -21.44 L 444.61 0 L 453.32 0 L 453.32 -46.9 L 440.59 -46.9 L 433.56 -15.28 L 432.89 -15.28 L 425.85 -46.9 L 413.12 -46.9 L 413.12 0 L 421.83 0 L 421.83 -21.44 L 421.16 -33.03 L 421.83 -33.03 Z M 460.89 0 L 470.27 0 L 472.35 -9.04 L 484.28 -9.04 L 486.35 0 L 495.73 0 L 483 -46.9 L 473.62 -46.9 Z M 474.03 -16.42 L 478.11 -34.37 L 478.51 -34.37 L 482.6 -16.42 Z M 503.3 -46.9 L 503.3 0 L 512.01 0 L 512.01 -30.89 L 512.68 -30.89 L 520.72 0 L 532.78 0 L 532.78 -46.9 L 524.07 -46.9 L 524.07 -15.88 L 523.4 -15.88 L 515.36 -46.9 Z" stroke-linecap="round" />
</g>
</g>
</g>
<g transform="matrix(1.9211538461538462 0 0 1.9211538461538462 640.1253552884615 778.72930802378)" id="tagline-25b30ea8-e50c-44bb-a24f-3e8258222215-logo"  >
<g style=""  paint-order="stroke"   >
		<g transform="matrix(1 0 0 1 0 0)" id="tagline-25b30ea8-e50c-44bb-a24f-3e8258222215-logo-path-0"  >
<path style="stroke: none; stroke-width: 0; stroke-dasharray: none; stroke-linecap: butt; stroke-dashoffset: 0; stroke-linejoin: miter; stroke-miterlimit: 4; fill: rgb(0,0,0); fill-rule: nonzero; opacity: 1;"  paint-order="stroke"  transform=" translate(-203.40500000000003, 10.15)" d="M 7.54 0.29 C 11.77 0.29 14.18 -2.38 14.18 -6.06 C 14.18 -8.76 12.33 -10.29 9.77 -11.31 L 6.82 -12.5 C 5.66 -12.96 4.61 -13.57 4.61 -14.94 C 4.61 -16.3 5.63 -17.11 7.22 -17.11 C 8.82 -17.11 10.12 -16.33 10.12 -14.79 L 10.12 -14.38 L 13.89 -14.38 L 13.89 -14.67 C 13.89 -18.47 11.4 -20.59 7.48 -20.59 C 2.84 -20.59 0.84 -18.1 0.84 -14.94 C 0.84 -11.48 3.1 -9.95 5.34 -9.13 L 7.74 -8.27 C 9.69 -7.57 10.41 -6.64 10.41 -5.63 C 10.41 -4 9.4 -3.19 7.8 -3.19 C 6.03 -3.19 4.9 -3.97 4.9 -5.51 L 4.9 -6.03 L 1.13 -6.03 L 1.13 -5.63 C 1.13 -1.83 3.51 0.29 7.54 0.29 Z M 30.74 -14.15 L 30.74 -6.15 C 30.74 -1.74 33.06 0.29 37.38 0.29 C 41.73 0.29 44.08 -1.59 44.08 -6.15 L 44.08 -14.15 C 44.08 -18.71 41.73 -20.59 37.38 -20.59 C 33.06 -20.59 30.74 -18.56 30.74 -14.15 Z M 40.31 -14.27 L 40.31 -6.03 C 40.31 -4.06 39.24 -3.19 37.41 -3.19 C 35.58 -3.19 34.51 -4.06 34.51 -6.03 L 34.51 -14.27 C 34.51 -16.24 35.58 -17.11 37.41 -17.11 C 39.24 -17.11 40.31 -16.24 40.31 -14.27 Z M 61.77 0 L 65.54 0 L 65.54 -8.27 L 71.78 -8.27 L 71.78 -11.75 L 65.54 -11.75 L 65.54 -16.82 L 72.65 -16.82 L 72.65 -20.3 L 61.77 -20.3 Z M 93.38 0 L 97.15 0 L 97.15 -16.82 L 102.08 -16.82 L 102.08 -20.3 L 88.45 -20.3 L 88.45 -16.82 L 93.38 -16.82 Z M 117.77 -20.3 L 122.41 0 L 126.47 0 L 129.43 -12.91 L 129.6 -12.91 L 132.56 0 L 136.62 0 L 141.26 -20.3 L 137.2 -20.3 L 134.62 -5.25 L 131.4 -20.3 L 127.63 -20.3 L 124.41 -5.25 L 121.83 -20.3 Z M 154.89 0 L 158.95 0 L 159.85 -3.92 L 165.01 -3.92 L 165.91 0 L 169.97 0 L 164.46 -20.3 L 160.4 -20.3 Z M 160.57 -7.11 L 162.34 -14.88 L 162.52 -14.88 L 164.28 -7.11 Z M 186.35 0 L 190.12 0 L 190.12 -6.09 L 192.94 -6.09 C 193.2 -6.09 193.43 -6.09 193.69 -6.12 L 195.92 0 L 199.98 0 L 196.97 -6.93 C 198.74 -7.89 199.64 -9.69 199.64 -12.53 L 199.64 -13.86 C 199.64 -18.42 197.29 -20.3 192.94 -20.3 L 186.35 -20.3 Z M 190.12 -9.57 L 190.12 -16.82 L 192.97 -16.82 C 194.79 -16.82 195.87 -15.95 195.87 -13.98 L 195.87 -12.41 C 195.87 -10.44 194.79 -9.57 192.97 -9.57 Z M 217.3 0 L 228.17 0 L 228.17 -3.48 L 221.07 -3.48 L 221.07 -8.85 L 227.3 -8.85 L 227.3 -12.33 L 221.07 -12.33 L 221.07 -16.82 L 228.17 -16.82 L 228.17 -20.3 L 217.3 -20.3 Z M 274.51 0.29 C 276.51 0.29 277.94 -0.32 278.83 -1.62 C 279.79 -0.38 281.33 0.29 283.47 0.29 L 283.79 0.29 L 283.79 -3.19 L 283.3 -3.19 C 281.71 -3.19 281.15 -4.38 281.15 -5.37 L 281.15 -9.11 L 283.79 -9.11 L 283.79 -12.15 L 275.47 -12.15 C 274.4 -12.15 273.03 -12.67 273.03 -14.27 C 273.03 -16.3 274.19 -16.82 275.5 -16.82 C 276.49 -16.82 277.67 -16.36 277.67 -14.96 L 277.67 -14.5 L 281.44 -14.5 L 281.44 -14.79 C 281.44 -19.05 278.98 -20.53 275.33 -20.53 C 270.98 -20.53 269.26 -18.13 269.26 -15.31 C 269.26 -12.76 270.11 -11.63 271.67 -11.05 L 271.67 -10.73 C 270.19 -9.89 269.26 -8.18 269.26 -5.68 C 269.26 -2.29 270.95 0.29 274.51 0.29 Z M 273.03 -6.26 C 273.03 -8.27 274.11 -9.11 276.02 -9.11 L 277.67 -9.11 L 277.67 -5.34 C 277.67 -3.74 276.49 -3.19 275.5 -3.19 C 274.22 -3.19 273.03 -3.63 273.03 -6.26 Z M 323.67 -20.3 L 328.31 0 L 332.37 0 L 335.33 -12.91 L 335.5 -12.91 L 338.46 0 L 342.52 0 L 347.16 -20.3 L 343.1 -20.3 L 340.52 -5.25 L 337.3 -20.3 L 333.53 -20.3 L 330.31 -5.25 L 327.73 -20.3 Z M 364.18 0 L 375.06 0 L 375.06 -3.48 L 367.95 -3.48 L 367.95 -8.85 L 374.19 -8.85 L 374.19 -12.33 L 367.95 -12.33 L 367.95 -16.82 L 375.06 -16.82 L 375.06 -20.3 L 364.18 -20.3 Z M 392.69 0 L 399.56 0 C 403.74 0 405.97 -1.91 405.97 -6 C 405.97 -8.55 404.93 -10.15 402.87 -10.9 C 404.32 -11.66 405.1 -13.08 405.1 -15.23 C 405.1 -18.71 403.1 -20.3 399.42 -20.3 L 392.69 -20.3 Z M 396.46 -3.48 L 396.46 -9.31 L 399.88 -9.31 C 401.53 -9.31 402.49 -8.55 402.49 -6.79 L 402.49 -6 C 402.49 -4.23 401.53 -3.48 399.88 -3.48 Z M 396.46 -12.21 L 396.46 -16.82 L 399.56 -16.82 C 400.87 -16.82 401.62 -16.21 401.62 -14.82 L 401.62 -14.21 C 401.62 -12.82 400.87 -12.21 399.56 -12.21 Z" stroke-linecap="round" />
</g>
</g>
</g>
<g transform="matrix(1.9211538461538462 0 0 1.9211538461538462 640.3731841346154 390.046983504044)" id="tagline-cd6519c7-1733-470d-b7a9-d111cdaf86fb-logo"  >
<g style=""  paint-order="stroke"   >
		<g transform="matrix(1 0 0 1 0 0)" id="tagline-cd6519c7-1733-470d-b7a9-d111cdaf86fb-logo-path-0"  >
<path style="stroke: none; stroke-width: 0; stroke-dasharray: none; stroke-linecap: butt; stroke-dashoffset: 0; stroke-linejoin: miter; stroke-miterlimit: 4; fill: rgb(255,255,255); fill-rule: nonzero; opacity: 1;"  paint-order="stroke"  transform=" translate(-50.285, 38.295)" d="M 3.44 -16.32 C 3.44 -5.33 10.54 1.11 24.53 1.11 C 37.96 1.11 46.18 -6.55 46.18 -19.43 C 46.18 -29.64 38.74 -34.3 32.19 -36.41 L 22.53 -39.52 C 18.43 -40.85 15.54 -42.85 15.54 -46.73 C 15.54 -51.17 19.65 -53.39 23.75 -53.39 C 28.19 -53.39 31.97 -51.39 31.97 -47.84 L 31.97 -46.95 L 45.29 -46.95 L 45.29 -47.62 C 45.29 -57.83 38.3 -64.38 24.42 -64.38 C 10.99 -64.38 3.33 -56.83 3.33 -44.95 C 3.33 -35.52 9.1 -30.53 15.65 -28.42 L 26.09 -24.98 C 30.86 -23.42 33.74 -21.2 33.74 -17.54 C 33.74 -12.88 29.64 -10.21 25.64 -10.21 C 20.98 -10.21 16.76 -11.43 16.76 -17.21 L 16.76 -18.43 L 3.44 -18.43 Z M 87.58 0 L 97.24 0 L 97.24 -11.1 L 88.36 -11.1 C 84.69 -11.1 82.81 -12.99 82.81 -17.54 L 82.81 -52.17 L 97.24 -52.17 L 97.24 -63.27 L 82.81 -63.27 L 82.81 -77.7 L 69.49 -77.7 L 69.49 -63.27 L 61.72 -63.27 L 61.72 -52.17 L 69.49 -52.17 L 69.49 -17.43 C 69.49 -5.11 75.7 0 87.58 0 Z" stroke-linecap="round" />
</g>
</g>
</g>
</svg>